<svg xmlns="http://www.w3.org/2000/svg" viewBox="0 0 180 56" width="180" height="56">
  <rect x="0.5" y="0.5" width="179" height="55" rx="9" fill="#000000" stroke="#A6A6A6"/>
  <g fill="#ffffff">
    <path d="M37.8 28.4c-.05-3.1 2.53-4.6 2.65-4.67-1.5-2.18-3.84-2.48-4.66-2.5-1.96-.2-3.83 1.15-4.83 1.15-1.02 0-2.55-1.12-4.2-1.09-2.15.03-4.16 1.27-5.26 3.19-2.26 3.92-.58 9.69 1.6 12.86 1.07 1.55 2.34 3.27 3.99 3.21 1.6-.06 2.2-1.03 4.13-1.03 1.93 0 2.47 1.03 4.15 1 1.72-.03 2.81-1.56 3.86-3.12 1.22-1.79 1.72-3.54 1.74-3.62-.04-.02-3.33-1.28-3.37-5.08z"/>
    <path d="M34.46 19.07c.9-1.09 1.5-2.6 1.34-4.1-1.3.05-2.9.87-3.83 1.94-.83.94-1.55 2.49-1.36 3.94 1.42.11 2.9-.72 3.85-1.78z"/>
    <text x="47" y="24" font-family="Helvetica Neue, Arial, sans-serif" font-size="8.5">Download on the</text>
    <text x="47" y="38" font-family="Helvetica Neue, Arial, sans-serif" font-size="17" font-weight="600">App Store</text>
  </g>
</svg>
