<svg xmlns="http://www.w3.org/2000/svg" viewBox="0 0 180 56" width="180" height="56">
  <rect x="0.5" y="0.5" width="179" height="55" rx="9" fill="#000000" stroke="#A6A6A6"/>
  <g>
    <path d="M21.2 15.4c-.4.4-.6 1-.6 1.7v21.8c0 .7.2 1.3.6 1.7l.1.1L33.6 28.4v-.3L21.3 15.3l-.1.1z" fill="#00d2ff"/>
    <path d="M37.7 32.5l-4.1-4.1v-.3l4.1-4.1.1.1 4.9 2.8c1.4.8 1.4 2.1 0 2.9l-4.9 2.8-.1-.1z" fill="#ffce00"/>
    <path d="M37.8 32.4L33.6 28.2 21.2 40.6c.4.5 1.1.5 1.9.1l14.7-8.3z" fill="#ff3a44"/>
    <path d="M37.8 24l-14.7-8.3c-.8-.5-1.5-.4-1.9.1l12.4 12.4 4.2-4.2z" fill="#38d264"/>
  </g>
  <g fill="#ffffff">
    <text x="50" y="24" font-family="Helvetica Neue, Arial, sans-serif" font-size="8" letter-spacing="0.5">GET IT ON</text>
    <text x="50" y="38" font-family="Helvetica Neue, Arial, sans-serif" font-size="16" font-weight="500">Google Play</text>
  </g>
</svg>
